# xmcd
# 
# Track frame offsets:
#     150
#     14209
#     32098
#     44492
#     56763
#     71806
#     91395
#     105056
#     115449
#     126544
#     141394
#     152689
#     166626
#     178445
#     190208
#     202027
#     214197
#     228802
#     240653
#     257404
#     269445
#     282236
# 
# Disc length: 3992
# 
# Revision: 1
# Processed by: cddbd v1.5.2PL0 Copyright (c) Steve Scherf et al.
# Submitted via: BonkEnc v1.0
# 
DISCID=4e0f9616
DTITLE=Various Artist - 美国乡村音乐
DYEAR=2001
DGENRE=Country
TTITLE0=Various Artist - 柠檬树
TTITLE1=Various Artist - 小孩
TTITLE2=Various Artist - 伴你一生
TTITLE3=Various Artist - 常青树
TTITLE4=Various Artist - 4时55分
TTITLE5=Various Artist - 奇异恩典
TTITLE6=Various Artist - 太多眼泪
TTITLE7=Various Artist - 七个寂寞日
TTITLE8=Various Artist - 奉献给你
TTITLE9=Various Artist - 多娜多娜
TTITLE10=Various Artist - 随风的飘
TTITLE11=Various Artist - 绿袖子
TTITLE12=Various Artist - 红玫瑰
TTITLE13=Various Artist - 孩子诞生时
TTITLE14=Various Artist - 全美国最快类的女孩
TTITLE15=Various Artist - 世界末日
TTITLE16=Various Artist - 老鹰之歌
TTITLE17=Various Artist - 沉醉于梦中
TTITLE18=Various Artist - 美好时光
TTITLE19=Various Artist - 美国乡村1
TTITLE20=Various Artist - 美国乡村2
TTITLE21=Various Artist - 美国乡村3
EXTD=
EXTT0=
EXTT1=
EXTT2=
EXTT3=
EXTT4=
EXTT5=
EXTT6=
EXTT7=
EXTT8=
EXTT9=
EXTT10=
EXTT11=
EXTT12=
EXTT13=
EXTT14=
EXTT15=
EXTT16=
EXTT17=
EXTT18=
EXTT19=
EXTT20=
EXTT21=
PLAYORDER=
